<svg width="409" height="191" viewBox="0 0 409 191" fill="none" xmlns="http://www.w3.org/2000/svg">
<path d="M255.177 145.458C257.221 135.792 271.528 122 273.322 103.042C275.658 78.1667 263.061 34 201.577 34C140.093 34 131 79.625 131 98.6667C131 124.125 149.729 137.292 148.853 146.333C148.936 146.375 149.02 146.458 149.103 146.5C149.562 156.292 139.259 156.875 139.843 162.917C140.302 167.625 153.65 168.792 162.868 163.792C161.408 166.583 159.364 169.125 156.82 170.542C152.065 173.167 148.227 174.458 148.227 177.375C148.227 180.292 162.493 187.708 177.134 180.5C181.472 178.375 184.6 176.083 186.978 173.833C187.061 174.333 187.103 174.792 187.186 175.208C187.895 179.375 190.315 191 200.868 191C211.421 191 213.548 180.833 215.3 174.792C215.425 174.292 215.592 173.792 215.717 173.292C218.095 175.75 221.432 178.25 226.146 180.583C240.786 187.792 255.052 180.375 255.052 177.458C255.052 174.542 251.215 173.292 246.459 170.625C243.748 169.125 241.621 166.417 240.161 163.417C249.379 169 263.561 167.917 264.02 163.042C264.604 156.875 253.801 156.417 254.802 145.917C254.885 145.667 255.01 145.583 255.177 145.458Z" fill="#FF48D8"/>
<path d="M174.255 131C183.493 131 190.982 123.519 190.982 114.292C190.982 105.064 183.493 97.5834 174.255 97.5834C165.018 97.5834 157.529 105.064 157.529 114.292C157.529 123.519 165.018 131 174.255 131Z" fill="white"/>
<path d="M175.381 122.667C181.878 122.667 187.144 117.406 187.144 110.917C187.144 104.427 181.878 99.1667 175.381 99.1667C168.885 99.1667 163.619 104.427 163.619 110.917C163.619 117.406 168.885 122.667 175.381 122.667Z" fill="url(#paint0_linear)"/>
<path d="M168.541 107.333C170.015 107.333 171.21 106.139 171.21 104.667C171.21 103.194 170.015 102 168.541 102C167.066 102 165.871 103.194 165.871 104.667C165.871 106.139 167.066 107.333 168.541 107.333Z" fill="white"/>
<path d="M226.688 129.708C235.212 129.708 242.121 122.806 242.121 114.292C242.121 105.777 235.212 98.8751 226.688 98.8751C218.164 98.8751 211.254 105.777 211.254 114.292C211.254 122.806 218.164 129.708 226.688 129.708Z" fill="white"/>
<path d="M226.646 123.583C233.119 123.583 238.367 118.341 238.367 111.875C238.367 105.409 233.119 100.167 226.646 100.167C220.173 100.167 214.925 105.409 214.925 111.875C214.925 118.341 220.173 123.583 226.646 123.583Z" fill="url(#paint1_linear)"/>
<path d="M220.598 107.833C222.095 107.833 223.309 106.621 223.309 105.125C223.309 103.629 222.095 102.417 220.598 102.417C219.101 102.417 217.887 103.629 217.887 105.125C217.887 106.621 219.101 107.833 220.598 107.833Z" fill="white"/>
<path d="M243.331 83.4583C243.748 83.625 244.082 83.7916 244.457 83.9583C244.833 84.125 245.166 84.3333 245.542 84.5416C245.917 84.75 246.251 84.9583 246.626 85.25C247.002 85.5416 247.335 85.7916 247.752 86.2916C248.17 86.7916 248.044 87.5417 247.544 87.9583C247.21 88.25 246.751 88.2917 246.334 88.125L245.875 87.9166C245.792 87.875 245.5 87.75 245.25 87.625C244.958 87.5417 244.666 87.4167 244.332 87.3333C243.998 87.25 243.665 87.1667 243.331 87.0833C242.997 87 242.622 86.9583 242.33 86.9167C241.329 86.7916 240.62 85.875 240.745 84.875C240.87 83.875 241.788 83.1666 242.789 83.2916C242.956 83.2916 243.122 83.375 243.248 83.4166L243.331 83.4583Z" fill="#100030"/>
<path d="M160.24 88.7499C159.948 88.7499 159.573 88.7915 159.239 88.8332C158.905 88.8749 158.571 88.9165 158.238 88.9999C157.904 89.0832 157.57 89.1249 157.278 89.2082C156.986 89.2915 156.694 89.4165 156.528 89.4999L156.236 89.6249C155.777 89.8332 155.234 89.6249 155.026 89.1665C154.901 88.8749 154.942 88.4999 155.109 88.2499C155.443 87.7499 155.777 87.4582 156.11 87.2082C156.444 86.9165 156.778 86.6665 157.153 86.4582C157.487 86.2499 157.862 85.9999 158.196 85.8332C158.571 85.6249 158.863 85.4582 159.281 85.2499L159.364 85.2082C160.282 84.7499 161.408 85.1665 161.867 86.0832C162.326 86.9999 161.908 88.1249 160.991 88.5832C160.74 88.7082 160.49 88.7499 160.24 88.7499Z" fill="#100030"/>
<path d="M194.527 140.458C194.778 140.75 195.028 140.917 195.362 141.083C195.695 141.25 196.071 141.417 196.53 141.583C197.406 141.875 198.448 142 199.491 141.958C200.534 141.917 201.619 141.708 202.578 141.333C203.078 141.167 203.496 140.958 203.871 140.75L204.288 140.5C204.413 140.417 204.497 140.375 204.622 140.333L206.499 139.375C207.125 139.083 207.875 139.333 208.167 139.917C208.209 140.042 208.251 140.167 208.292 140.292C208.376 140.958 208.334 141.667 208.126 142.25C208.084 142.417 208.042 142.542 207.959 142.708L207.75 143.125C207.625 143.417 207.458 143.625 207.291 143.875C206.666 144.792 205.873 145.417 205.081 145.958C203.454 147 201.619 147.583 199.7 147.667C197.781 147.75 195.821 147.333 194.069 146.208C193.193 145.667 192.4 144.917 191.774 143.917C191.19 142.958 190.857 141.667 191.065 140.458C191.232 139.583 192.108 139.042 192.984 139.208C193.36 139.292 193.652 139.458 193.86 139.708L194.527 140.458Z" fill="#100030"/>
<path d="M391.851 48.2387C398.387 44.232 402.633 37.7361 402.633 30.4016C402.633 18.235 390.946 8.35806 376.53 8.35806C369.235 8.35806 362.633 10.8872 357.894 14.9605C353.661 7.59932 344.729 2.52771 334.386 2.52771C319.97 2.52771 308.283 12.3914 308.283 24.5712C308.283 25.3033 308.323 26.0088 308.403 26.7277C300.283 30.2818 294.666 37.8426 294.666 46.6147C294.666 53.9226 298.566 60.4052 304.582 64.4119C303.877 66.0892 303.491 67.8862 303.491 69.7631C303.491 78.5352 311.917 85.6435 322.3 85.6435C325.761 85.6435 328.995 84.8581 331.791 83.4737C331.671 84.1792 331.618 84.9113 331.618 85.6435C331.618 94.4156 340.044 101.524 350.427 101.524C359.944 101.524 367.811 95.5471 369.062 87.7999C372.869 89.6368 377.275 90.6884 381.974 90.6884C396.39 90.6884 408.078 80.8248 408.078 68.6449C408.078 59.4202 401.369 51.5266 391.851 48.2387Z" fill="white"/>
<path d="M326.067 97.1578C331.213 97.1578 335.385 94.5773 335.385 91.394C335.385 88.2108 331.213 85.6302 326.067 85.6302C320.921 85.6302 316.749 88.2108 316.749 91.394C316.749 94.5773 320.921 97.1578 326.067 97.1578Z" fill="white"/>
<path d="M316.762 106.303C316.762 108.566 313.794 110.403 310.133 110.403C306.473 110.403 303.504 108.566 303.504 106.303C303.504 104.04 306.473 102.203 310.133 102.203C313.781 102.203 316.762 104.04 316.762 106.303Z" fill="white"/>
<path d="M296.09 115.421C296.09 117.151 293.827 118.549 291.045 118.549C288.263 118.549 286 117.151 286 115.421C286 113.69 288.263 112.293 291.045 112.293C293.827 112.293 296.09 113.69 296.09 115.421Z" fill="white"/>
<path d="M18.2791 39.8792C12.1959 35.2336 8.61512 28.3516 9.34724 21.0437C10.5719 8.93043 23.191 0.291395 37.5273 1.72902C44.7819 2.46114 51.0915 5.64254 55.4043 10.1684C60.3561 3.27313 69.7539 -0.879999 80.0435 0.158282C94.3798 1.5959 105.016 12.591 103.804 24.7043C103.738 25.4231 103.618 26.1419 103.471 26.8341C111.205 31.1869 116.024 39.2802 115.145 47.9991C114.413 55.2671 109.874 61.3237 103.498 64.7181C104.031 66.4486 104.243 68.2855 104.057 70.1491C103.165 78.868 94.0737 85.0977 83.7308 84.0594C80.2832 83.7133 77.1417 82.6085 74.5061 80.9579C74.546 81.6767 74.5327 82.3955 74.4661 83.1276C73.5876 91.8598 64.496 98.0895 54.1531 97.0379C44.6754 96.0795 37.4474 89.3573 36.9815 81.517C33.0147 82.9546 28.5155 83.5669 23.8432 83.0877C9.52029 81.6501 -1.12875 70.6682 0.0958868 58.555C1.02768 49.3835 8.48201 42.1954 18.2791 39.8792Z" fill="white"/>
<path d="M74.7589 92.2592C74.8787 95.4406 79.1517 97.8633 84.2898 97.6636C89.428 97.4639 93.5012 94.7218 93.3681 91.5537C93.2483 88.3723 88.9754 85.9497 83.8372 86.1493C78.6991 86.3357 74.6391 89.0778 74.7589 92.2592Z" fill="white"/>
<path d="M92.2634 105.131C92.0371 107.381 94.8059 109.511 98.4532 109.883C102.1 110.256 105.242 108.725 105.468 106.462C105.695 104.213 102.926 102.083 99.2785 101.71C95.6312 101.351 92.4897 102.882 92.2634 105.131Z" fill="white"/>
<path d="M105.482 117.404C105.309 119.121 107.412 120.745 110.194 121.025C112.963 121.304 115.359 120.133 115.532 118.416C115.705 116.699 113.602 115.075 110.819 114.795C108.037 114.529 105.655 115.687 105.482 117.404Z" fill="white"/>
<path d="M346.438 59.8351L348.799 49.4913C354.293 50.7789 360.945 48.8474 362.705 41.3363C363.692 37.0443 361.761 33.8682 357.469 32.881C352.619 31.765 349.786 34.3403 348.799 38.6323L348.67 39.1474L340 37.1301L340.515 34.8553C342.103 28.031 348.584 23.2238 358.928 25.6274C369.787 28.1168 373.306 35.585 371.461 43.654C369.1 53.9121 356.825 55.9723 355.237 55.8435L353.992 61.5949L346.438 59.8351ZM346.91 74.8573C344.206 74.2135 342.532 71.6812 343.176 68.9343C343.777 66.2732 346.395 64.5993 349.142 65.2431C351.932 65.8869 353.563 68.5051 352.962 71.1662C352.275 73.9131 349.7 75.5011 346.91 74.8573Z" fill="#13C093"/>
<path d="M39.0567 42.7226C37.6562 38.5211 37.6562 34.8198 39.0067 31.7187C40.3572 28.6176 42.9581 26.2167 46.8595 24.5161C50.8109 22.8155 54.4121 22.5655 57.6633 23.6658C60.9144 24.8163 63.3153 27.1671 64.8658 30.7183C66.1663 33.7194 66.3664 36.6204 65.5161 39.4214C64.6658 42.2224 62.7651 44.6233 59.8641 46.624L63.1152 54.1766L56.0127 57.2277L50.5108 44.4232C50.8109 44.2731 51.111 44.1731 51.4111 44.0731C51.7112 43.973 51.8612 43.923 51.8612 43.923C54.6122 42.7226 56.5129 41.2721 57.5132 39.4714C58.5136 37.6708 58.5636 35.7201 57.6133 33.5694C56.913 31.9188 55.8126 30.8684 54.3121 30.3682C52.8116 29.868 51.161 30.0181 49.3103 30.7684C47.4597 31.5686 46.2593 32.7691 45.659 34.3696C45.0588 35.9702 45.1589 37.8209 45.9091 39.8716L39.0567 42.7226ZM65.166 69.4821C63.6154 70.1323 62.0649 70.1823 60.6143 69.6321C59.1638 69.0819 58.0634 68.0316 57.4132 66.481C56.763 64.9805 56.763 63.4799 57.3632 62.0294C57.9634 60.5789 59.0638 59.5285 60.6143 58.8783C62.1149 58.2281 63.6154 58.1781 65.1159 58.7783C66.6165 59.3285 67.6668 60.3788 68.267 61.8294C68.9173 63.3299 68.9173 64.7804 68.3171 66.2809C67.7169 67.7815 66.6665 68.8318 65.166 69.4821Z" fill="#6018C8"/>
<defs>
<linearGradient id="paint0_linear" x1="186.539" y1="110.922" x2="163.289" y2="110.922" gradientUnits="userSpaceOnUse">
<stop/>
<stop offset="0.4481" stop-color="#100030"/>
<stop offset="0.8399" stop-color="#180070"/>
<stop offset="1"/>
</linearGradient>
<linearGradient id="paint1_linear" x1="214.995" y1="111.856" x2="237.754" y2="111.856" gradientUnits="userSpaceOnUse">
<stop/>
<stop offset="0.4481" stop-color="#100030"/>
<stop offset="0.8399" stop-color="#180070"/>
<stop offset="1"/>
</linearGradient>
</defs>
</svg>
