<?xml version="1.0" standalone="no"?>
<!DOCTYPE svg PUBLIC "-//W3C//DTD SVG 20010904//EN"
 "http://www.w3.org/TR/2001/REC-SVG-20010904/DTD/svg10.dtd">
<svg version="1.0" xmlns="http://www.w3.org/2000/svg"
 width="990.000000pt" height="990.000000pt" viewBox="0 0 990.000000 990.000000"
 preserveAspectRatio="xMidYMid meet">
<metadata>
Created by potrace 1.14, written by Peter Selinger 2001-2017
</metadata>
<g transform="translate(0.000000,990.000000) scale(0.100000,-0.100000)"
fill="#000000" stroke="none">
<path d="M3730 9888 c0 -4 -6 -13 -12 -20 -7 -8 -18 -23 -24 -33 -6 -11 -23
-42 -39 -70 -16 -27 -35 -62 -42 -77 -8 -15 -19 -30 -24 -33 -5 -4 -7 -11 -4
-16 4 -5 1 -9 -4 -9 -6 0 -17 -15 -26 -32 -8 -18 -30 -60 -50 -93 -20 -33 -43
-75 -52 -92 -9 -18 -21 -33 -25 -33 -5 0 -7 -4 -4 -9 3 -5 -2 -19 -12 -32 -10
-13 -33 -51 -52 -84 -58 -105 -67 -121 -109 -190 -23 -37 -41 -69 -41 -70 0
-4 -43 -77 -93 -160 -10 -16 -23 -42 -30 -57 -6 -16 -15 -28 -19 -28 -4 0 -8
-4 -8 -9 0 -5 -19 -42 -43 -83 -24 -40 -55 -93 -69 -118 -14 -25 -49 -85 -78
-135 -72 -123 -94 -162 -125 -220 -15 -27 -33 -57 -41 -66 -8 -8 -14 -18 -14
-22 0 -3 -35 -66 -78 -139 -43 -74 -82 -140 -86 -148 -4 -8 -12 -24 -19 -35
-7 -11 -30 -51 -52 -90 -22 -38 -45 -79 -52 -90 -7 -11 -15 -27 -19 -35 -5 -8
-23 -38 -41 -67 -18 -29 -33 -55 -33 -58 0 -4 -9 -20 -21 -36 -11 -16 -17 -29
-12 -29 4 0 0 -5 -9 -11 -10 -5 -18 -16 -18 -24 0 -7 -6 -20 -13 -27 -7 -7
-58 -89 -112 -183 -54 -93 -111 -192 -127 -220 -16 -27 -32 -58 -35 -67 -3
-10 -9 -18 -14 -18 -5 0 -9 -5 -9 -10 0 -6 -17 -38 -38 -73 -20 -34 -44 -76
-52 -92 -8 -17 -18 -32 -21 -35 -4 -3 -19 -27 -33 -55 -15 -27 -35 -63 -45
-80 -10 -16 -29 -48 -41 -70 -13 -22 -34 -58 -47 -80 -12 -22 -26 -47 -29 -55
-4 -8 -13 -22 -20 -30 -7 -8 -24 -37 -39 -65 -14 -27 -36 -68 -49 -90 -24 -41
-85 -148 -116 -200 -52 -89 -136 -236 -157 -275 -14 -24 -33 -56 -42 -70 -10
-14 -20 -29 -22 -35 -10 -26 -84 -150 -91 -153 -4 -2 -8 -7 -8 -12 0 -4 -25
-52 -57 -106 -31 -55 -64 -114 -74 -133 -10 -18 -26 -43 -36 -54 -13 -15 -14
-18 -3 -13 13 7 13 6 0 -6 -8 -7 -24 -31 -35 -53 -11 -22 -22 -42 -25 -45 -3
-3 -33 -52 -65 -110 -33 -58 -63 -106 -67 -108 -4 -2 -8 -9 -8 -15 0 -7 -16
-38 -35 -70 -19 -31 -49 -83 -66 -115 -17 -31 -37 -64 -44 -72 -7 -8 -18 -30
-26 -47 -8 -18 -17 -33 -20 -33 -4 0 -12 -12 -18 -27 -6 -16 -19 -41 -30 -58
-10 -16 -28 -48 -41 -70 -12 -22 -38 -66 -57 -97 l-34 -58 19 -27 c11 -16 23
-38 26 -50 4 -13 12 -23 17 -23 5 0 9 -5 9 -11 0 -6 20 -45 45 -86 25 -40 45
-76 45 -79 0 -4 13 -25 28 -48 15 -22 34 -56 41 -73 7 -18 16 -33 20 -33 4 0
12 -12 18 -27 7 -16 23 -46 37 -68 14 -22 29 -47 33 -55 4 -8 26 -48 50 -88
24 -40 43 -77 43 -81 0 -5 3 -11 8 -13 9 -4 51 -76 59 -100 3 -10 9 -18 14
-18 5 0 9 -5 9 -10 0 -6 11 -28 25 -50 14 -22 22 -40 18 -40 -5 0 -3 -4 2 -8
9 -7 75 -109 75 -117 0 -2 27 -49 60 -105 33 -56 60 -104 60 -107 0 -3 12 -24
28 -47 15 -22 34 -54 42 -71 8 -16 36 -65 63 -108 26 -43 47 -80 47 -83 0 -2
18 -33 40 -69 22 -36 40 -70 40 -75 0 -6 5 -10 10 -10 6 0 9 -3 8 -7 -1 -5 5
-19 14 -33 35 -55 88 -152 88 -161 0 -5 4 -9 8 -9 5 0 14 -16 22 -35 8 -19 17
-35 21 -35 4 0 9 -8 12 -17 4 -10 18 -36 32 -58 13 -22 28 -47 32 -55 4 -8 44
-79 90 -158 46 -79 83 -148 83 -153 0 -5 7 -12 15 -15 8 -4 15 -14 15 -24 0
-10 7 -23 15 -30 8 -7 15 -16 15 -21 0 -5 11 -26 23 -47 13 -20 35 -57 49 -82
14 -25 75 -131 137 -237 61 -106 111 -197 111 -203 0 -5 3 -10 8 -10 7 0 25
-30 38 -62 6 -17 47 -18 622 -20 603 -3 615 -3 626 -23 6 -11 15 -23 19 -26 5
-3 7 -8 6 -10 -2 -2 4 -15 13 -29 9 -14 27 -45 41 -70 69 -122 120 -209 143
-250 15 -25 35 -59 44 -75 65 -116 163 -281 170 -289 6 -6 290 -10 480 -5 8 0
47 0 85 0 39 -1 79 -1 90 -1 303 0 462 0 470 1 6 0 42 0 80 0 39 -1 79 -1 90
-1 303 0 462 0 470 1 6 0 42 0 80 0 39 -1 79 -1 90 -1 303 0 462 0 470 1 6 0
42 0 80 0 39 -1 79 -1 90 -1 303 0 462 0 470 1 6 0 42 0 80 0 39 -1 77 -1 85
-1 8 0 112 0 231 -1 119 -1 221 1 226 4 5 3 14 2 21 -2 7 -4 25 -6 41 -3 24 3
37 20 87 105 33 56 64 111 71 122 7 11 15 27 19 35 4 8 22 38 39 65 29 46 36
61 46 90 1 6 11 19 21 29 10 11 23 35 30 53 7 18 15 33 18 33 3 0 19 26 35 58
17 31 32 59 35 62 3 3 11 16 19 30 8 14 46 79 84 145 38 66 79 138 91 160 11
22 23 42 26 45 10 10 90 153 90 161 0 5 5 9 12 9 6 0 9 2 6 5 -5 5 74 148 99
180 5 6 17 28 28 50 11 22 23 42 28 43 4 2 7 10 7 18 0 8 5 14 10 14 6 0 9 3
8 8 -2 6 20 48 82 152 5 8 31 53 57 99 26 47 55 96 63 110 9 14 32 54 53 89
20 35 37 65 37 67 0 2 13 24 29 47 16 24 27 46 25 50 -3 5 0 8 5 8 6 0 11 6
11 14 0 8 3 16 8 18 4 2 20 28 36 58 16 30 37 66 46 80 9 14 31 50 47 80 84
153 168 296 178 302 5 4 6 8 1 8 -5 0 -2 8 6 18 8 9 30 44 49 77 18 33 42 74
51 90 10 17 29 50 43 75 14 25 34 59 44 75 10 17 29 50 43 75 14 25 38 67 53
94 24 42 26 51 15 69 -7 11 -24 41 -37 66 -14 25 -31 53 -38 61 -7 8 -18 30
-26 48 -8 17 -17 32 -21 32 -5 0 -8 5 -8 10 0 9 -69 131 -204 360 -15 25 -29
53 -33 63 -3 9 -9 17 -14 17 -5 0 -9 4 -9 9 0 5 -22 48 -50 96 -27 48 -50 91
-50 96 0 5 -4 9 -9 9 -5 0 -11 8 -14 18 -4 9 -22 44 -42 77 -20 33 -39 67 -42
75 -4 8 -9 17 -12 20 -9 7 -28 40 -48 80 -9 19 -28 53 -43 75 -14 22 -31 51
-38 65 -7 14 -26 48 -42 75 -17 28 -33 57 -37 65 -3 8 -11 22 -18 30 -12 15
-67 113 -89 157 -6 13 -14 23 -18 23 -5 0 -8 4 -8 9 0 4 -21 46 -47 91 l-47
83 27 51 c15 28 37 67 49 86 12 19 22 37 23 40 0 3 8 16 17 30 27 43 118 200
118 205 0 3 15 28 33 57 19 29 37 60 40 68 4 8 16 30 27 48 65 108 210 364
210 372 0 6 4 10 8 10 4 0 21 25 37 56 17 30 35 63 40 72 34 56 134 230 155
270 14 26 27 49 30 52 3 3 11 16 18 29 57 101 54 87 29 132 -12 22 -27 48 -32
57 -16 27 -95 164 -113 197 -9 17 -21 33 -25 36 -5 3 -8 9 -7 13 0 4 -15 33
-34 65 -20 32 -36 64 -36 70 0 6 -4 11 -8 11 -4 0 -20 24 -36 53 -15 28 -41
75 -57 102 -16 28 -35 61 -42 75 -6 14 -17 31 -24 38 -7 7 -13 20 -13 28 0 8
-4 14 -10 14 -5 0 -10 4 -10 9 0 4 -41 80 -92 167 -136 237 -299 518 -357 617
-28 49 -51 93 -51 98 0 5 -4 9 -9 9 -5 0 -12 11 -15 24 -3 14 -12 31 -19 38
-7 7 -23 34 -37 61 -14 26 -29 47 -33 47 -5 0 -5 5 -2 10 3 6 1 10 -4 10 -6 0
-11 5 -11 11 0 7 -20 45 -45 87 -25 41 -45 78 -45 83 0 5 -4 9 -10 9 -5 0 -10
5 -10 10 0 6 -11 27 -24 48 -12 20 -23 39 -23 42 0 3 -12 25 -27 48 -24 39
-52 87 -90 157 -6 11 -13 22 -16 25 -9 9 -51 85 -57 103 -3 9 -9 17 -14 17 -5
0 -9 4 -9 10 0 5 -41 81 -91 167 -51 87 -103 178 -117 203 -14 25 -45 78 -69
118 -24 41 -43 78 -43 83 0 5 -4 9 -10 9 -5 0 -10 9 -10 20 0 11 -4 20 -8 20
-5 0 -19 20 -31 45 -12 25 -28 45 -34 46 -71 5 -3747 2 -3747 -3z"/>
</g>
</svg>
